<svg version="1" xmlns="http://www.w3.org/2000/svg" width="341.333" height="341.333" viewBox="0 0 256.000000 256.000000"><path d="M2 64.5c0 2.3.4 2.5 4.5 2.5 2.5 0 4.5-.5 4.5-1 0-.6 8.7-1 24-1s24 .4 24 1c0 .5.7 1 1.5 1s1.5-.5 1.5-1c0-.6 4-1 10-1 6.8 0 10 .4 10 1.1 0 .8 2 .9 7.3.4 9-1 38.9-1 48 0 4.7.5 6.7.4 6.7-.4 0-.7 3.3-1.1 10-1.1 6 0 10 .4 10 1 0 .5 2.5 1 5.5 1s5.5-.5 5.5-1c0-.6 4-1 10-1s10 .4 10 1c0 .5.7 1 1.5 1s1.5-.5 1.5-1c0-.6 8.7-1 24-1s24 .4 24 1c0 .5 1.8 1 4 1 3.6 0 4-.3 4-2.5V62H2v2.5zM2 71.5c0 2.3.4 2.5 4.5 2.5s4.5-.2 4.5-2.5-.4-2.5-4.5-2.5-4.5.2-4.5 2.5zM59 71.5c0 1.6.6 2.5 1.5 2.5s1.5-.9 1.5-2.5-.6-2.5-1.5-2.5-1.5.9-1.5 2.5zM82.2 71.2c.2 1.7 1 2.3 2.7 2.3 1.5 0 2.7-.8 3.2-2.3.8-2 .5-2.2-2.7-2.2-3.1 0-3.5.3-3.2 2.2zM138.4 70.6c.3.9.6 2 .6 2.5s1.1.9 2.5.9c2 0 2.5-.5 2.5-2.5 0-2.1-.5-2.5-3.1-2.5-2.4 0-3 .3-2.5 1.6zM164 71.5c0 2.4.3 2.5 5.5 2.5s5.5-.1 5.5-2.5-.3-2.5-5.5-2.5-5.5.1-5.5 2.5zM195 71.5c0 1.6.6 2.5 1.5 2.5s1.5-.9 1.5-2.5-.6-2.5-1.5-2.5-1.5.9-1.5 2.5zM246 71.5c0 2.2.4 2.5 4 2.5s4-.3 4-2.5c0-2.3-.4-2.5-4-2.5s-4 .2-4 2.5zM109 73c-1.1.7.2 1 4.3 1 3.6 0 5.6-.4 5.2-1-.8-1.3-7.5-1.3-9.5 0zM2 77.5v2.6l11.3-.3c10.4-.3 11.2-.4 11.2-2.3s-.8-2-11.2-2.3L2 74.9v2.6zM45 77.5c0 2.5.1 2.5 8.5 2.5s8.5 0 8.5-2.5-.1-2.5-8.5-2.5-8.5 0-8.5 2.5zM82.7 75.7c-.4.3-.7 1.5-.7 2.5 0 1.3.7 1.8 2.5 1.8 2 0 2.5-.5 2.5-2.5 0-1.8-.5-2.5-1.8-2.5-1 0-2.2.3-2.5.7zM107.7 75.7c-.4.3-.7 1.5-.7 2.5 0 1.7 1.2 1.8 18.6 1.8h18.5l-.3-2.2c-.4-3-3.8-3.7-4.5-.9-.5 1.9-1.2 2.1-9.9 2.1-8.7 0-9.4-.1-9.4-2 0-1.8-.7-2-5.8-2-3.2 0-6.2.3-6.5.7zM164 77.5c0 2.4.3 2.5 5.5 2.5s5.5-.1 5.5-2.5-.3-2.5-5.5-2.5-5.5.1-5.5 2.5zM195.7 75.7c-.4.3-.7 1.5-.7 2.5 0 1.6.9 1.8 8.5 1.8 8.4 0 8.5 0 8.5-2.5s-.1-2.5-7.8-2.5c-4.3 0-8.2.3-8.5.7zM232.7 75.7c-.4.3-.7 1.5-.7 2.5 0 1.6 1 1.8 11 1.8h11v-5h-10.3c-5.7 0-10.7.3-11 .7zM2.7 81.6c-.4.4-.7 1.6-.7 2.6 0 1.7.8 1.8 11.3 1.6 10.4-.3 11.2-.4 11.2-2.3s-.8-2-10.6-2.3c-5.8-.1-10.8.1-11.2.4zM45.7 81.6c-.4.4-.7 1.6-.7 2.6 0 1.6.9 1.8 8.6 1.8 8.3 0 8.5-.1 8.2-2.3-.3-2-.9-2.2-7.8-2.5-4.2-.1-7.9 0-8.3.4zM82.4 82.4c-.8 2.1.3 3.6 2.7 3.6 1.5 0 2-.6 1.7-2.2-.4-2.7-3.5-3.7-4.4-1.4zM107.4 82.5c-.4.9-.3 1.9 0 2.3.4.3 8.6.6 18.4.5 16.4-.2 17.7-.3 17.7-2s-1.4-1.8-17.8-2.1c-15.3-.2-17.8 0-18.3 1.3zM195.4 82.4c-1.1 2.9.7 3.6 8.7 3.6 7.8 0 8-.1 7.7-2.3-.3-2-.9-2.2-8.1-2.5-6.1-.2-7.8 0-8.3 1.2zM232.4 82.5c-1.2 2.9.7 3.5 11.2 3.5H254v-5h-10.5c-8.3 0-10.7.3-11.1 1.5zM2 89c0 2 .5 2.1 11.3 1.8 9.2-.2 11.2-.6 11.2-1.8 0-1.2-2-1.6-11.2-1.8C2.5 86.9 2 87 2 89zM45 89c0 1.8.7 2 8.5 2s8.5-.2 8.5-2-.7-2-8.5-2-8.5.2-8.5 2zM82.5 88c-.9 1.5.4 3 2.6 3 1.2 0 1.9-.7 1.9-2 0-2.1-3.3-2.9-4.5-1zM107.5 88c-1.1 1.7.5 3 3.6 3 2.2 0 2.9-.5 2.9-2s-.7-2-2.9-2c-1.7 0-3.3.4-3.6 1zM140 89c0 1.3.7 2 2 2s2-.7 2-2-.7-2-2-2-2 .7-2 2zM195.2 88.7c.3 1.5 1.6 1.8 8.6 2.1 7.7.3 8.2.2 8.2-1.8 0-1.9-.6-2-8.6-2-7.6 0-8.5.2-8.2 1.7zM232.2 88.7c.3 1.6 1.8 1.8 11.1 2.1 10.2.3 10.7.2 10.7-1.8 0-1.9-.6-2-11.1-2-10 0-11 .2-10.7 1.7zM2 93.5C2 94.8 3.8 95 13.6 95c8.8 0 11.5-.3 11.2-1.3-.3-.8-3.8-1.3-11.6-1.5C3.7 92 2 92.2 2 93.5zM45 93.5c0 1.2 1.6 1.5 8.5 1.5s8.5-.3 8.5-1.5-1.6-1.5-8.5-1.5-8.5.3-8.5 1.5zM82.7 92.7c-1.4 1.3-.6 2.3 1.8 2.3 1.6 0 2.5-.6 2.5-1.5 0-1.5-3.1-2.1-4.3-.8zM107.7 92.7c-1.7 1.7-.2 2.3 5.8 2.3 7.5 0 8.6-1.4 1.9-2.4-5.9-.8-6.9-.8-7.7.1zM140 93.5c0 .8.9 1.5 2 1.5s2-.7 2-1.5-.9-1.5-2-1.5-2 .7-2 1.5zM164 93.5c0 1.2 1.3 1.5 5.5 1.5s5.5-.3 5.5-1.5-1.3-1.5-5.5-1.5-5.5.3-5.5 1.5zM195 93.5c0 1.2 1.6 1.5 8.5 1.5s8.5-.3 8.5-1.5-1.6-1.5-8.5-1.5-8.5.3-8.5 1.5zM232 93.5c0 1.2 1.9 1.5 11 1.5s11-.3 11-1.5-1.9-1.5-11-1.5-11 .3-11 1.5zM2 98c0 .6 4.5 1 11.5 1S25 98.6 25 98s-4.5-1-11.5-1S2 97.4 2 98zM45 98c0 .6 3.5 1 8.5 1s8.5-.4 8.5-1-3.5-1-8.5-1-8.5.4-8.5 1zM82 98c0 .5 1.1 1 2.5 1s2.5-.5 2.5-1c0-.6-1.1-1-2.5-1s-2.5.4-2.5 1zM107 98c0 .6 2.8 1 6.5 1s6.5-.4 6.5-1-2.8-1-6.5-1-6.5.4-6.5 1zM140 98c0 .5.9 1 2 1s2-.5 2-1c0-.6-.9-1-2-1s-2 .4-2 1zM164 98c0 .5 2.5 1 5.5 1s5.5-.5 5.5-1c0-.6-2.5-1-5.5-1s-5.5.4-5.5 1zM195 98c0 .6 3.5 1 8.5 1s8.5-.4 8.5-1-3.5-1-8.5-1-8.5.4-8.5 1zM232 98c0 .6 4.3 1 11 1s11-.4 11-1-4.3-1-11-1-11 .4-11 1zM2 102c0 .6 4.3 1 10.9 1 6.3 0 11.2-.4 11.6-1 .4-.6-3.5-1-10.9-1-7.1 0-11.6.4-11.6 1zM45 102c0 .6 3.5 1 8.5 1s8.5-.4 8.5-1-3.5-1-8.5-1-8.5.4-8.5 1zM82.5 102c.3.5 1.7 1 3.1 1 1.3 0 2.4-.5 2.4-1 0-.6-1.4-1-3.1-1-1.7 0-2.8.4-2.4 1zM111.8 101.7c1.2.2 3.2.2 4.5 0 1.2-.2.2-.4-2.3-.4s-3.5.2-2.2.4zM139 102c0 .5.9 1 1.9 1 1.1 0 2.3-.5 2.6-1 .4-.6-.5-1-1.9-1s-2.6.4-2.6 1zM164 102c0 .5 2.5 1 5.5 1s5.5-.5 5.5-1c0-.6-2.5-1-5.5-1s-5.5.4-5.5 1zM195.5 102c.3.5 4.2 1 8.6 1 4.6 0 7.9-.4 7.9-1s-3.5-1-8.6-1c-5.4 0-8.3.4-7.9 1zM232.5 102c.3.6 5.2 1 11.1 1 6.3 0 10.4-.4 10.4-1s-4.4-1-11.1-1c-7.1 0-10.8.4-10.4 1zM2 105c0 .6 4.3 1 11 1s11-.4 11-1-4.3-1-11-1-11 .4-11 1zM45 105c0 .6 3.5 1 8.5 1s8.5-.4 8.5-1-3.5-1-8.5-1-8.5.4-8.5 1zM82.5 105c.3.5 2.2 1 4.1 1 2.1 0 3.3-.4 2.9-1-.3-.6-2.2-1-4.1-1-2.1 0-3.3.4-2.9 1zM137.5 105c-.4.6.8 1 2.9 1 2 0 3.6-.5 3.6-1 0-.6-1.3-1-2.9-1-1.7 0-3.3.4-3.6 1zM164 105c0 .5 2.5 1 5.5 1s5.5-.5 5.5-1c0-.6-2.5-1-5.5-1s-5.5.4-5.5 1zM195 105c0 .6 3.5 1 8.5 1s8.5-.4 8.5-1-3.5-1-8.5-1-8.5.4-8.5 1zM232 105c0 .6 4.3 1 11 1s11-.4 11-1-4.3-1-11-1-11 .4-11 1zM7.2 107.7c3.2.2 8.4.2 11.5 0 3.2-.2.6-.3-5.7-.3s-8.9.1-5.8.3zM49.3 107.7c2.6.2 6.7.2 9 0s.2-.3-4.8-.3c-4.9 0-6.8.1-4.2.3zM85.8 107.7c1.8.2 4.5.2 6 0s0-.4-3.3-.4-4.5.2-2.7.4zM135.3 107.7c1.5.2 3.9.2 5.5 0 1.5-.2.2-.4-2.8-.4s-4.3.2-2.7.4zM166.8 107.7c1.8.2 4.5.2 6 0s0-.4-3.3-.4-4.5.2-2.7.4zM199.8 107.7c2.3.2 6.1.2 8.5 0 2.3-.2.4-.4-4.3-.4s-6.6.2-4.2.4zM238.3 107.7c3.2.2 8.1.2 11 0 2.9-.2.3-.3-5.8-.3-6 0-8.4.1-5.2.3zM2.5 111c.9 1.4 251.5 1.4 251.5 0 0-.7-42.7-1-126.1-1-83.7 0-125.8.3-125.4 1zM16.7 114.7c7.9.2 20.7.2 28.5 0 7.9-.1 1.5-.3-14.2-.3s-22.1.2-14.3.3zM127.8 114.7c23.2.2 61.2.2 84.5 0 23.2-.1 4.2-.2-42.3-.2s-65.5.1-42.2.2zM39.3 117.5c-8 1.7-12.7 4-15.8 7.7-2.4 2.8-4.5 8.5-4.5 12 0 1.6-1.1 1.8-8.5 1.8H2v16h17v5.9c0 3.3.3 6.6.6 7.5.5 1.4-.6 1.6-8.5 1.6-5.4 0-9.1.4-9.1 1s3.7 1 9 1h9v23h36.1l-.3-11.5-.3-11.5H93v23h36v-23h29v3.8c0 5 3.8 12.2 7.5 14.4 6 3.4 14.7 4.9 31.5 5.5 24.2.8 40.9-1.5 49.1-6.9 4.5-3 8.1-10.1 7.7-15.3l-.3-4-29.7.3-29.8.4v-15.7l30 .3 30 .4V139h-60v-14h-36v14h-20v15h20v16h-29v-31H93v31H56v-15h32v-16H72c-14.9 0-16-.1-16-1.8 0-3.5 3.4-5.2 12.1-6.2 4.6-.6 10.5-.7 13.2-.4l4.7.7V116l-20.2.1c-13 0-22.5.5-26.5 1.4zM222 173.7c0 3.9-3 5.7-10.6 6.7-6.6.8-15.1-1-16.4-3.4-2.5-4.8-1.9-5 13-5 12.7 0 14 .2 14 1.7z"/><path d="M93 124.5v8.5h36v-17H93v8.5zM6.8 167.7c2.3.2 5.9.2 8 0 2-.2.1-.4-4.3-.4-4.4 0-6.1.2-3.7.4zM65.2 167.7c4.8.2 12.9.2 18 0 5.1-.1 1.2-.3-8.7-.3-9.9 0-14.1.2-9.3.3zM137.3 167.7c3.7.2 9.7.2 13.5 0 3.7-.2.6-.3-6.8-.3-7.4 0-10.5.1-6.7.3zM209.8 167.7c8.4.2 21.9.2 30 0 8.1-.1 1.2-.3-15.3-.3s-23.1.2-14.7.3z"/></svg>